<svg width="272" height="85" viewBox="0 0 272 85" fill="none" xmlns="http://www.w3.org/2000/svg">
<path fill-rule="evenodd" clip-rule="evenodd" d="M9 1H10.8657V83H9V1ZM29.5228 1H31.3885V83H29.5228V1ZM51.9103 1H50.0446V83H51.9103V1ZM70.5675 1H72.4331V83H70.5675V1ZM92.955 1H91.0893V83H92.955V1ZM111.612 1H113.478V83H111.612V1ZM134 1H132.134V83H134V1Z" fill="#F2F2F2" fill-opacity="0.3"/>
<path d="M33.3446 54.4079C11.2251 32.965 8.99995 61.6694 9 83H134V42.1542C134 42.1542 124.169 17.1929 109.655 39.4311C95.1424 61.6694 76.8839 5.84687 62.3708 28.539C47.8577 51.231 47.8577 68.477 33.3446 54.4079Z" fill="url(#paint0_linear)" fill-opacity="0.2"/>
<g filter="url(#filter0_d)">
<path d="M12 66C12 61.0208 13.2465 31.939 34.6415 53.3257C48.6792 67.358 48.6792 50.1571 62.7169 27.5245C76.7547 4.89179 94.4151 60.5681 108.453 38.3881C122.491 16.2081 132 41.1041 132 41.1041" stroke="#FFC01E" stroke-width="3.5" stroke-linecap="round"/>
</g>
<path d="M154.592 12.416C154.592 11.328 154.843 10.352 155.344 9.488C155.856 8.624 156.544 7.952 157.408 7.472C158.283 6.98133 159.237 6.736 160.272 6.736C161.456 6.736 162.507 7.02933 163.424 7.616C164.352 8.192 165.024 9.01333 165.44 10.08H163.248C162.96 9.49333 162.56 9.056 162.048 8.768C161.536 8.48 160.944 8.336 160.272 8.336C159.536 8.336 158.88 8.50133 158.304 8.832C157.728 9.16267 157.275 9.63733 156.944 10.256C156.624 10.8747 156.464 11.5947 156.464 12.416C156.464 13.2373 156.624 13.9573 156.944 14.576C157.275 15.1947 157.728 15.6747 158.304 16.016C158.88 16.3467 159.536 16.512 160.272 16.512C160.944 16.512 161.536 16.368 162.048 16.08C162.56 15.792 162.96 15.3547 163.248 14.768H165.44C165.024 15.8347 164.352 16.656 163.424 17.232C162.507 17.808 161.456 18.096 160.272 18.096C159.227 18.096 158.272 17.856 157.408 17.376C156.544 16.8853 155.856 16.208 155.344 15.344C154.843 14.48 154.592 13.504 154.592 12.416ZM175.559 9.184V18H173.735V16.96C173.447 17.3227 173.068 17.6107 172.599 17.824C172.14 18.0267 171.65 18.128 171.127 18.128C170.434 18.128 169.81 17.984 169.255 17.696C168.711 17.408 168.279 16.9813 167.959 16.416C167.65 15.8507 167.495 15.168 167.495 14.368V9.184H169.303V14.096C169.303 14.8853 169.5 15.4933 169.895 15.92C170.29 16.336 170.828 16.544 171.511 16.544C172.194 16.544 172.732 16.336 173.127 15.92C173.532 15.4933 173.735 14.8853 173.735 14.096V9.184H175.559ZM181.166 18.144C180.472 18.144 179.848 18.0213 179.294 17.776C178.75 17.52 178.318 17.1787 177.998 16.752C177.678 16.3147 177.507 15.8293 177.486 15.296H179.374C179.406 15.6693 179.582 15.984 179.902 16.24C180.232 16.4853 180.643 16.608 181.134 16.608C181.646 16.608 182.04 16.512 182.318 16.32C182.606 16.1173 182.75 15.8613 182.75 15.552C182.75 15.2213 182.59 14.976 182.27 14.816C181.96 14.656 181.464 14.48 180.782 14.288C180.12 14.1067 179.582 13.9307 179.166 13.76C178.75 13.5893 178.387 13.328 178.078 12.976C177.779 12.624 177.63 12.16 177.63 11.584C177.63 11.1147 177.768 10.688 178.046 10.304C178.323 9.90933 178.718 9.6 179.23 9.376C179.752 9.152 180.35 9.04 181.022 9.04C182.024 9.04 182.83 9.296 183.438 9.808C184.056 10.3093 184.387 10.9973 184.43 11.872H182.606C182.574 11.4773 182.414 11.1627 182.126 10.928C181.838 10.6933 181.448 10.576 180.958 10.576C180.478 10.576 180.11 10.6667 179.854 10.848C179.598 11.0293 179.47 11.2693 179.47 11.568C179.47 11.8027 179.555 12 179.726 12.16C179.896 12.32 180.104 12.448 180.35 12.544C180.595 12.6293 180.958 12.7413 181.438 12.88C182.078 13.0507 182.6 13.2267 183.006 13.408C183.422 13.5787 183.779 13.8347 184.078 14.176C184.376 14.5173 184.531 14.9707 184.542 15.536C184.542 16.0373 184.403 16.4853 184.126 16.88C183.848 17.2747 183.454 17.584 182.942 17.808C182.44 18.032 181.848 18.144 181.166 18.144ZM188.641 10.672V15.552C188.641 15.8827 188.715 16.1227 188.865 16.272C189.025 16.4107 189.291 16.48 189.665 16.48H190.785V18H189.345C188.523 18 187.894 17.808 187.457 17.424C187.019 17.04 186.801 16.416 186.801 15.552V10.672H185.761V9.184H186.801V6.992H188.641V9.184H190.785V10.672H188.641ZM196.29 18.144C195.458 18.144 194.706 17.9573 194.034 17.584C193.362 17.2 192.834 16.6667 192.45 15.984C192.066 15.2907 191.874 14.4907 191.874 13.584C191.874 12.688 192.071 11.8933 192.466 11.2C192.86 10.5067 193.399 9.97333 194.082 9.6C194.764 9.22667 195.527 9.04 196.37 9.04C197.212 9.04 197.975 9.22667 198.658 9.6C199.34 9.97333 199.879 10.5067 200.274 11.2C200.668 11.8933 200.866 12.688 200.866 13.584C200.866 14.48 200.663 15.2747 200.258 15.968C199.852 16.6613 199.298 17.2 198.594 17.584C197.9 17.9573 197.132 18.144 196.29 18.144ZM196.29 16.56C196.759 16.56 197.196 16.448 197.602 16.224C198.018 16 198.354 15.664 198.61 15.216C198.866 14.768 198.994 14.224 198.994 13.584C198.994 12.944 198.871 12.4053 198.626 11.968C198.38 11.52 198.055 11.184 197.65 10.96C197.244 10.736 196.807 10.624 196.338 10.624C195.868 10.624 195.431 10.736 195.026 10.96C194.631 11.184 194.316 11.52 194.082 11.968C193.847 12.4053 193.73 12.944 193.73 13.584C193.73 14.5333 193.97 15.2693 194.45 15.792C194.94 16.304 195.554 16.56 196.29 16.56ZM213.341 9.04C214.034 9.04 214.653 9.184 215.197 9.472C215.751 9.76 216.183 10.1867 216.493 10.752C216.813 11.3173 216.973 12 216.973 12.8V18H215.165V13.072C215.165 12.2827 214.967 11.68 214.573 11.264C214.178 10.8373 213.639 10.624 212.957 10.624C212.274 10.624 211.73 10.8373 211.325 11.264C210.93 11.68 210.733 12.2827 210.733 13.072V18H208.925V13.072C208.925 12.2827 208.727 11.68 208.333 11.264C207.938 10.8373 207.399 10.624 206.717 10.624C206.034 10.624 205.49 10.8373 205.085 11.264C204.69 11.68 204.493 12.2827 204.493 13.072V18H202.669V9.184H204.493V10.192C204.791 9.82933 205.17 9.54667 205.629 9.344C206.087 9.14133 206.578 9.04 207.101 9.04C207.805 9.04 208.434 9.18933 208.989 9.488C209.543 9.78667 209.97 10.2187 210.269 10.784C210.535 10.2507 210.951 9.82933 211.517 9.52C212.082 9.2 212.69 9.04 213.341 9.04ZM227.374 13.376C227.374 13.7067 227.352 14.0053 227.31 14.272H220.574C220.627 14.976 220.888 15.5413 221.358 15.968C221.827 16.3947 222.403 16.608 223.086 16.608C224.067 16.608 224.76 16.1973 225.166 15.376H227.134C226.867 16.1867 226.382 16.8533 225.678 17.376C224.984 17.888 224.12 18.144 223.086 18.144C222.243 18.144 221.486 17.9573 220.814 17.584C220.152 17.2 219.63 16.6667 219.246 15.984C218.872 15.2907 218.686 14.4907 218.686 13.584C218.686 12.6773 218.867 11.8827 219.23 11.2C219.603 10.5067 220.12 9.97333 220.782 9.6C221.454 9.22667 222.222 9.04 223.086 9.04C223.918 9.04 224.659 9.22133 225.31 9.584C225.96 9.94667 226.467 10.4587 226.83 11.12C227.192 11.7707 227.374 12.5227 227.374 13.376ZM225.47 12.8C225.459 12.128 225.219 11.5893 224.75 11.184C224.28 10.7787 223.699 10.576 223.006 10.576C222.376 10.576 221.838 10.7787 221.39 11.184C220.942 11.5787 220.675 12.1173 220.59 12.8H225.47ZM230.993 10.464C231.259 10.016 231.611 9.66933 232.049 9.424C232.497 9.168 233.025 9.04 233.633 9.04V10.928H233.169C232.454 10.928 231.91 11.1093 231.537 11.472C231.174 11.8347 230.993 12.464 230.993 13.36V18H229.169V9.184H230.993V10.464ZM243.162 10.672H241.53V18H239.69V10.672H238.65V9.184H239.69V8.56C239.69 7.54667 239.956 6.81067 240.49 6.352C241.034 5.88267 241.882 5.648 243.034 5.648V7.168C242.479 7.168 242.09 7.27467 241.866 7.488C241.642 7.69067 241.53 8.048 241.53 8.56V9.184H243.162V10.672ZM246.602 6.16V18H244.778V6.16H246.602ZM252.821 18.144C251.989 18.144 251.237 17.9573 250.565 17.584C249.893 17.2 249.365 16.6667 248.981 15.984C248.597 15.2907 248.405 14.4907 248.405 13.584C248.405 12.688 248.602 11.8933 248.997 11.2C249.392 10.5067 249.93 9.97333 250.613 9.6C251.296 9.22667 252.058 9.04 252.901 9.04C253.744 9.04 254.506 9.22667 255.189 9.6C255.872 9.97333 256.41 10.5067 256.805 11.2C257.2 11.8933 257.397 12.688 257.397 13.584C257.397 14.48 257.194 15.2747 256.789 15.968C256.384 16.6613 255.829 17.2 255.125 17.584C254.432 17.9573 253.664 18.144 252.821 18.144ZM252.821 16.56C253.29 16.56 253.728 16.448 254.133 16.224C254.549 16 254.885 15.664 255.141 15.216C255.397 14.768 255.525 14.224 255.525 13.584C255.525 12.944 255.402 12.4053 255.157 11.968C254.912 11.52 254.586 11.184 254.181 10.96C253.776 10.736 253.338 10.624 252.869 10.624C252.4 10.624 251.962 10.736 251.557 10.96C251.162 11.184 250.848 11.52 250.613 11.968C250.378 12.4053 250.261 12.944 250.261 13.584C250.261 14.5333 250.501 15.2693 250.981 15.792C251.472 16.304 252.085 16.56 252.821 16.56ZM271.04 9.184L268.304 18H266.384L264.608 11.488L262.832 18H260.912L258.16 9.184H260.016L261.856 16.272L263.728 9.184H265.632L267.424 16.24L269.248 9.184H271.04Z" fill="#0E1233"/>
<path d="M155.17 50.89C155.85 50.35 156.16 50.1 156.1 50.14C158.06 48.52 159.6 47.19 160.72 46.15C161.86 45.11 162.82 44.02 163.6 42.88C164.38 41.74 164.77 40.63 164.77 39.55C164.77 38.73 164.58 38.09 164.2 37.63C163.82 37.17 163.25 36.94 162.49 36.94C161.73 36.94 161.13 37.23 160.69 37.81C160.27 38.37 160.06 39.17 160.06 40.21H155.11C155.15 38.51 155.51 37.09 156.19 35.95C156.89 34.81 157.8 33.97 158.92 33.43C160.06 32.89 161.32 32.62 162.7 32.62C165.08 32.62 166.87 33.23 168.07 34.45C169.29 35.67 169.9 37.26 169.9 39.22C169.9 41.36 169.17 43.35 167.71 45.19C166.25 47.01 164.39 48.79 162.13 50.53H170.23V54.7H155.17V50.89ZM172.489 43.75C172.489 40.31 173.149 37.6 174.469 35.62C175.809 33.64 177.959 32.65 180.919 32.65C183.879 32.65 186.019 33.64 187.339 35.62C188.679 37.6 189.349 40.31 189.349 43.75C189.349 47.23 188.679 49.96 187.339 51.94C186.019 53.92 183.879 54.91 180.919 54.91C177.959 54.91 175.809 53.92 174.469 51.94C173.149 49.96 172.489 47.23 172.489 43.75ZM184.309 43.75C184.309 41.73 184.089 40.18 183.649 39.1C183.209 38 182.299 37.45 180.919 37.45C179.539 37.45 178.629 38 178.189 39.1C177.749 40.18 177.529 41.73 177.529 43.75C177.529 45.11 177.609 46.24 177.769 47.14C177.929 48.02 178.249 48.74 178.729 49.3C179.229 49.84 179.959 50.11 180.919 50.11C181.879 50.11 182.599 49.84 183.079 49.3C183.579 48.74 183.909 48.02 184.069 47.14C184.229 46.24 184.309 45.11 184.309 43.75ZM198.089 50.26L194.759 58.87H191.489L193.229 50.26H198.089ZM200.672 43.75C200.672 40.31 201.332 37.6 202.652 35.62C203.992 33.64 206.142 32.65 209.102 32.65C212.062 32.65 214.202 33.64 215.522 35.62C216.862 37.6 217.532 40.31 217.532 43.75C217.532 47.23 216.862 49.96 215.522 51.94C214.202 53.92 212.062 54.91 209.102 54.91C206.142 54.91 203.992 53.92 202.652 51.94C201.332 49.96 200.672 47.23 200.672 43.75ZM212.492 43.75C212.492 41.73 212.272 40.18 211.832 39.1C211.392 38 210.482 37.45 209.102 37.45C207.722 37.45 206.812 38 206.372 39.1C205.932 40.18 205.712 41.73 205.712 43.75C205.712 45.11 205.792 46.24 205.952 47.14C206.112 48.02 206.432 48.74 206.912 49.3C207.412 49.84 208.142 50.11 209.102 50.11C210.062 50.11 210.782 49.84 211.262 49.3C211.762 48.74 212.092 48.02 212.252 47.14C212.412 46.24 212.492 45.11 212.492 43.75ZM220.243 43.75C220.243 40.31 220.903 37.6 222.223 35.62C223.563 33.64 225.713 32.65 228.673 32.65C231.633 32.65 233.773 33.64 235.093 35.62C236.433 37.6 237.103 40.31 237.103 43.75C237.103 47.23 236.433 49.96 235.093 51.94C233.773 53.92 231.633 54.91 228.673 54.91C225.713 54.91 223.563 53.92 222.223 51.94C220.903 49.96 220.243 47.23 220.243 43.75ZM232.063 43.75C232.063 41.73 231.843 40.18 231.403 39.1C230.963 38 230.053 37.45 228.673 37.45C227.293 37.45 226.383 38 225.943 39.1C225.503 40.18 225.283 41.73 225.283 43.75C225.283 45.11 225.363 46.24 225.523 47.14C225.683 48.02 226.003 48.74 226.483 49.3C226.983 49.84 227.713 50.11 228.673 50.11C229.633 50.11 230.353 49.84 230.833 49.3C231.333 48.74 231.663 48.02 231.823 47.14C231.983 46.24 232.063 45.11 232.063 43.75ZM239.813 43.75C239.813 40.31 240.473 37.6 241.793 35.62C243.133 33.64 245.283 32.65 248.243 32.65C251.203 32.65 253.343 33.64 254.663 35.62C256.003 37.6 256.673 40.31 256.673 43.75C256.673 47.23 256.003 49.96 254.663 51.94C253.343 53.92 251.203 54.91 248.243 54.91C245.283 54.91 243.133 53.92 241.793 51.94C240.473 49.96 239.813 47.23 239.813 43.75ZM251.633 43.75C251.633 41.73 251.413 40.18 250.973 39.1C250.533 38 249.623 37.45 248.243 37.45C246.863 37.45 245.953 38 245.513 39.1C245.073 40.18 244.853 41.73 244.853 43.75C244.853 45.11 244.933 46.24 245.093 47.14C245.253 48.02 245.573 48.74 246.053 49.3C246.553 49.84 247.283 50.11 248.243 50.11C249.203 50.11 249.923 49.84 250.403 49.3C250.903 48.74 251.233 48.02 251.393 47.14C251.553 46.24 251.633 45.11 251.633 43.75Z" fill="#0E1233"/>
<path d="M214.016 71.636V80H212.924V71.636H214.016ZM219.081 73.304C219.881 73.304 220.529 73.548 221.025 74.036C221.521 74.516 221.769 75.212 221.769 76.124V80H220.689V76.28C220.689 75.624 220.525 75.124 220.197 74.78C219.869 74.428 219.421 74.252 218.853 74.252C218.277 74.252 217.817 74.432 217.473 74.792C217.137 75.152 216.969 75.676 216.969 76.364V80H215.877V73.424H216.969V74.36C217.185 74.024 217.477 73.764 217.845 73.58C218.221 73.396 218.633 73.304 219.081 73.304ZM223.145 76.7C223.145 76.02 223.281 75.428 223.553 74.924C223.825 74.412 224.201 74.016 224.681 73.736C225.169 73.456 225.725 73.316 226.349 73.316C227.157 73.316 227.821 73.512 228.341 73.904C228.869 74.296 229.217 74.84 229.385 75.536H228.209C228.097 75.136 227.877 74.82 227.549 74.588C227.229 74.356 226.829 74.24 226.349 74.24C225.725 74.24 225.221 74.456 224.837 74.888C224.453 75.312 224.261 75.916 224.261 76.7C224.261 77.492 224.453 78.104 224.837 78.536C225.221 78.968 225.725 79.184 226.349 79.184C226.829 79.184 227.229 79.072 227.549 78.848C227.869 78.624 228.089 78.304 228.209 77.888H229.385C229.209 78.56 228.857 79.1 228.329 79.508C227.801 79.908 227.141 80.108 226.349 80.108C225.725 80.108 225.169 79.968 224.681 79.688C224.201 79.408 223.825 79.012 223.553 78.5C223.281 77.988 223.145 77.388 223.145 76.7ZM231.934 74.492C232.126 74.116 232.398 73.824 232.75 73.616C233.11 73.408 233.546 73.304 234.058 73.304V74.432H233.77C232.546 74.432 231.934 75.096 231.934 76.424V80H230.842V73.424H231.934V74.492ZM241.319 76.46C241.319 76.668 241.307 76.888 241.283 77.12H236.027C236.067 77.768 236.287 78.276 236.687 78.644C237.095 79.004 237.587 79.184 238.163 79.184C238.635 79.184 239.027 79.076 239.339 78.86C239.659 78.636 239.883 78.34 240.011 77.972H241.187C241.011 78.604 240.659 79.12 240.131 79.52C239.603 79.912 238.947 80.108 238.163 80.108C237.539 80.108 236.979 79.968 236.483 79.688C235.995 79.408 235.611 79.012 235.331 78.5C235.051 77.98 234.911 77.38 234.911 76.7C234.911 76.02 235.047 75.424 235.319 74.912C235.591 74.4 235.971 74.008 236.459 73.736C236.955 73.456 237.523 73.316 238.163 73.316C238.787 73.316 239.339 73.452 239.819 73.724C240.299 73.996 240.667 74.372 240.923 74.852C241.187 75.324 241.319 75.86 241.319 76.46ZM240.191 76.232C240.191 75.816 240.099 75.46 239.915 75.164C239.731 74.86 239.479 74.632 239.159 74.48C238.847 74.32 238.499 74.24 238.115 74.24C237.563 74.24 237.091 74.416 236.699 74.768C236.315 75.12 236.095 75.608 236.039 76.232H240.191ZM242.352 76.688C242.352 76.016 242.488 75.428 242.76 74.924C243.032 74.412 243.404 74.016 243.876 73.736C244.356 73.456 244.888 73.316 245.472 73.316C246.048 73.316 246.548 73.44 246.972 73.688C247.396 73.936 247.712 74.248 247.92 74.624V73.424H249.024V80H247.92V78.776C247.704 79.16 247.38 79.48 246.948 79.736C246.524 79.984 246.028 80.108 245.46 80.108C244.876 80.108 244.348 79.964 243.876 79.676C243.404 79.388 243.032 78.984 242.76 78.464C242.488 77.944 242.352 77.352 242.352 76.688ZM247.92 76.7C247.92 76.204 247.82 75.772 247.62 75.404C247.42 75.036 247.148 74.756 246.804 74.564C246.468 74.364 246.096 74.264 245.688 74.264C245.28 74.264 244.908 74.36 244.572 74.552C244.236 74.744 243.968 75.024 243.768 75.392C243.568 75.76 243.468 76.192 243.468 76.688C243.468 77.192 243.568 77.632 243.768 78.008C243.968 78.376 244.236 78.66 244.572 78.86C244.908 79.052 245.28 79.148 245.688 79.148C246.096 79.148 246.468 79.052 246.804 78.86C247.148 78.66 247.42 78.376 247.62 78.008C247.82 77.632 247.92 77.196 247.92 76.7ZM253.197 80.108C252.693 80.108 252.241 80.024 251.841 79.856C251.441 79.68 251.125 79.44 250.893 79.136C250.661 78.824 250.533 78.468 250.509 78.068H251.637C251.669 78.396 251.821 78.664 252.093 78.872C252.373 79.08 252.737 79.184 253.185 79.184C253.601 79.184 253.929 79.092 254.169 78.908C254.409 78.724 254.529 78.492 254.529 78.212C254.529 77.924 254.401 77.712 254.145 77.576C253.889 77.432 253.493 77.292 252.957 77.156C252.469 77.028 252.069 76.9 251.757 76.772C251.453 76.636 251.189 76.44 250.965 76.184C250.749 75.92 250.641 75.576 250.641 75.152C250.641 74.816 250.741 74.508 250.941 74.228C251.141 73.948 251.425 73.728 251.793 73.568C252.161 73.4 252.581 73.316 253.053 73.316C253.781 73.316 254.369 73.5 254.817 73.868C255.265 74.236 255.505 74.74 255.537 75.38H254.445C254.421 75.036 254.281 74.76 254.025 74.552C253.777 74.344 253.441 74.24 253.017 74.24C252.625 74.24 252.313 74.324 252.081 74.492C251.849 74.66 251.733 74.88 251.733 75.152C251.733 75.368 251.801 75.548 251.937 75.692C252.081 75.828 252.257 75.94 252.465 76.028C252.681 76.108 252.977 76.2 253.353 76.304C253.825 76.432 254.209 76.56 254.505 76.688C254.801 76.808 255.053 76.992 255.261 77.24C255.477 77.488 255.589 77.812 255.597 78.212C255.597 78.572 255.497 78.896 255.297 79.184C255.097 79.472 254.813 79.7 254.445 79.868C254.085 80.028 253.669 80.108 253.197 80.108ZM263.139 76.46C263.139 76.668 263.127 76.888 263.103 77.12H257.847C257.887 77.768 258.107 78.276 258.507 78.644C258.915 79.004 259.407 79.184 259.983 79.184C260.455 79.184 260.847 79.076 261.159 78.86C261.479 78.636 261.703 78.34 261.831 77.972H263.007C262.831 78.604 262.479 79.12 261.951 79.52C261.423 79.912 260.767 80.108 259.983 80.108C259.359 80.108 258.799 79.968 258.303 79.688C257.815 79.408 257.431 79.012 257.151 78.5C256.871 77.98 256.731 77.38 256.731 76.7C256.731 76.02 256.867 75.424 257.139 74.912C257.411 74.4 257.791 74.008 258.279 73.736C258.775 73.456 259.343 73.316 259.983 73.316C260.607 73.316 261.159 73.452 261.639 73.724C262.119 73.996 262.487 74.372 262.743 74.852C263.007 75.324 263.139 75.86 263.139 76.46ZM262.011 76.232C262.011 75.816 261.919 75.46 261.735 75.164C261.551 74.86 261.299 74.632 260.979 74.48C260.667 74.32 260.319 74.24 259.935 74.24C259.383 74.24 258.911 74.416 258.519 74.768C258.135 75.12 257.915 75.608 257.859 76.232H262.011ZM264.172 76.688C264.172 76.016 264.308 75.428 264.58 74.924C264.852 74.412 265.224 74.016 265.696 73.736C266.176 73.456 266.712 73.316 267.304 73.316C267.816 73.316 268.292 73.436 268.732 73.676C269.172 73.908 269.508 74.216 269.74 74.6V71.12H270.844V80H269.74V78.764C269.524 79.156 269.204 79.48 268.78 79.736C268.356 79.984 267.86 80.108 267.292 80.108C266.708 80.108 266.176 79.964 265.696 79.676C265.224 79.388 264.852 78.984 264.58 78.464C264.308 77.944 264.172 77.352 264.172 76.688ZM269.74 76.7C269.74 76.204 269.64 75.772 269.44 75.404C269.24 75.036 268.968 74.756 268.624 74.564C268.288 74.364 267.916 74.264 267.508 74.264C267.1 74.264 266.728 74.36 266.392 74.552C266.056 74.744 265.788 75.024 265.588 75.392C265.388 75.76 265.288 76.192 265.288 76.688C265.288 77.192 265.388 77.632 265.588 78.008C265.788 78.376 266.056 78.66 266.392 78.86C266.728 79.052 267.1 79.148 267.508 79.148C267.916 79.148 268.288 79.052 268.624 78.86C268.968 78.66 269.24 78.376 269.44 78.008C269.64 77.632 269.74 77.196 269.74 76.7Z" fill="#444872"/>
<path d="M187.516 72.704H183.628V74.756C183.796 74.548 184.036 74.38 184.348 74.252C184.66 74.116 184.992 74.048 185.344 74.048C185.984 74.048 186.508 74.188 186.916 74.468C187.324 74.748 187.62 75.108 187.804 75.548C187.988 75.98 188.08 76.444 188.08 76.94C188.08 77.86 187.816 78.6 187.288 79.16C186.768 79.72 186.024 80 185.056 80C184.144 80 183.416 79.772 182.872 79.316C182.328 78.86 182.02 78.264 181.948 77.528H183.58C183.652 77.848 183.812 78.104 184.06 78.296C184.316 78.488 184.64 78.584 185.032 78.584C185.504 78.584 185.86 78.436 186.1 78.14C186.34 77.844 186.46 77.452 186.46 76.964C186.46 76.468 186.336 76.092 186.088 75.836C185.848 75.572 185.492 75.44 185.02 75.44C184.684 75.44 184.404 75.524 184.18 75.692C183.956 75.86 183.796 76.084 183.7 76.364H182.092V71.228H187.516V72.704ZM195.239 72.704H191.351V74.756C191.519 74.548 191.759 74.38 192.071 74.252C192.383 74.116 192.715 74.048 193.067 74.048C193.707 74.048 194.231 74.188 194.639 74.468C195.047 74.748 195.343 75.108 195.527 75.548C195.711 75.98 195.803 76.444 195.803 76.94C195.803 77.86 195.539 78.6 195.011 79.16C194.491 79.72 193.747 80 192.779 80C191.867 80 191.139 79.772 190.595 79.316C190.051 78.86 189.743 78.264 189.671 77.528H191.303C191.375 77.848 191.535 78.104 191.783 78.296C192.039 78.488 192.363 78.584 192.755 78.584C193.227 78.584 193.583 78.436 193.823 78.14C194.063 77.844 194.183 77.452 194.183 76.964C194.183 76.468 194.059 76.092 193.811 75.836C193.571 75.572 193.215 75.44 192.743 75.44C192.407 75.44 192.127 75.524 191.903 75.692C191.679 75.86 191.519 76.084 191.423 76.364H189.815V71.228H195.239V72.704ZM196.889 73.4C196.889 72.792 197.065 72.316 197.417 71.972C197.777 71.628 198.237 71.456 198.797 71.456C199.357 71.456 199.813 71.628 200.165 71.972C200.525 72.316 200.705 72.792 200.705 73.4C200.705 74.016 200.525 74.496 200.165 74.84C199.813 75.184 199.357 75.356 198.797 75.356C198.237 75.356 197.777 75.184 197.417 74.84C197.065 74.496 196.889 74.016 196.889 73.4ZM204.593 71.6L199.877 80H198.245L202.949 71.6H204.593ZM198.785 72.464C198.345 72.464 198.125 72.776 198.125 73.4C198.125 74.032 198.345 74.348 198.785 74.348C199.001 74.348 199.169 74.272 199.289 74.12C199.409 73.96 199.469 73.72 199.469 73.4C199.469 72.776 199.241 72.464 198.785 72.464ZM202.157 78.188C202.157 77.572 202.333 77.096 202.685 76.76C203.045 76.416 203.505 76.244 204.065 76.244C204.625 76.244 205.077 76.416 205.421 76.76C205.773 77.096 205.949 77.572 205.949 78.188C205.949 78.804 205.773 79.284 205.421 79.628C205.077 79.972 204.625 80.144 204.065 80.144C203.497 80.144 203.037 79.972 202.685 79.628C202.333 79.284 202.157 78.804 202.157 78.188ZM204.053 77.252C203.597 77.252 203.369 77.564 203.369 78.188C203.369 78.82 203.597 79.136 204.053 79.136C204.501 79.136 204.725 78.82 204.725 78.188C204.725 77.564 204.501 77.252 204.053 77.252Z" fill="#FFC01E"/>
<path d="M155 80.9182L159.83 76.1775L163.755 80.0293L171 72.9182" stroke="#FFC01E" stroke-width="1.5" stroke-linecap="round" stroke-linejoin="round"/>
<path d="M167 71.918H172V76.918" stroke="#FFC01E" stroke-width="1.5" stroke-linecap="round"/>
<defs>
<filter id="filter0_d" x="0.25" y="16.2498" width="143.5" height="67.5003" filterUnits="userSpaceOnUse" color-interpolation-filters="sRGB">
<feFlood flood-opacity="0" result="BackgroundImageFix"/>
<feColorMatrix in="SourceAlpha" type="matrix" values="0 0 0 0 0 0 0 0 0 0 0 0 0 0 0 0 0 0 127 0"/>
<feOffset dy="6"/>
<feGaussianBlur stdDeviation="5"/>
<feColorMatrix type="matrix" values="0 0 0 0 1 0 0 0 0 0.752941 0 0 0 0 0.117647 0 0 0 0.4 0"/>
<feBlend mode="normal" in2="BackgroundImageFix" result="effect1_dropShadow"/>
<feBlend mode="normal" in="SourceGraphic" in2="effect1_dropShadow" result="shape"/>
</filter>
<linearGradient id="paint0_linear" x1="71.5" y1="23" x2="71.5" y2="83" gradientUnits="userSpaceOnUse">
<stop stop-color="#FFBBBB" stop-opacity="0"/>
<stop offset="1" stop-color="#FF3838" stop-opacity="0.18"/>
</linearGradient>
</defs>
</svg>
