<svg width="272" height="85" viewBox="0 0 272 85" fill="none" xmlns="http://www.w3.org/2000/svg">
<path fill-rule="evenodd" clip-rule="evenodd" d="M9 1H10.8657V83H9V1ZM29.5228 1H31.3885V83H29.5228V1ZM51.9103 1H50.0446V83H51.9103V1ZM70.5675 1H72.4331V83H70.5675V1ZM92.955 1H91.0893V83H92.955V1ZM111.612 1H113.478V83H111.612V1ZM134 1H132.134V83H134V1Z" fill="#F2F2F2" fill-opacity="0.3"/>
<path d="M33.3446 54.4079C11.2251 32.965 8.99995 61.6694 9 83H134V42.1542C134 42.1542 124.169 17.1929 109.655 39.4311C95.1424 61.6694 76.8839 5.84687 62.3708 28.539C47.8577 51.231 47.8577 68.477 33.3446 54.4079Z" fill="url(#paint0_linear)" fill-opacity="0.2"/>
<g filter="url(#filter0_d)">
<path d="M12 66C12 61.0208 13.2465 31.939 34.6415 53.3257C48.6792 67.358 48.6792 50.1571 62.7169 27.5245C76.7547 4.89179 94.4151 60.5681 108.453 38.3881C122.491 16.2081 132 41.1041 132 41.1041" stroke="#F5125F" stroke-width="3.5" stroke-linecap="round"/>
</g>
<path d="M154.592 12.416C154.592 11.328 154.843 10.352 155.344 9.488C155.856 8.624 156.544 7.952 157.408 7.472C158.283 6.98133 159.237 6.736 160.272 6.736C161.456 6.736 162.507 7.02933 163.424 7.616C164.352 8.192 165.024 9.01333 165.44 10.08H163.248C162.96 9.49333 162.56 9.056 162.048 8.768C161.536 8.48 160.944 8.336 160.272 8.336C159.536 8.336 158.88 8.50133 158.304 8.832C157.728 9.16267 157.275 9.63733 156.944 10.256C156.624 10.8747 156.464 11.5947 156.464 12.416C156.464 13.2373 156.624 13.9573 156.944 14.576C157.275 15.1947 157.728 15.6747 158.304 16.016C158.88 16.3467 159.536 16.512 160.272 16.512C160.944 16.512 161.536 16.368 162.048 16.08C162.56 15.792 162.96 15.3547 163.248 14.768H165.44C165.024 15.8347 164.352 16.656 163.424 17.232C162.507 17.808 161.456 18.096 160.272 18.096C159.227 18.096 158.272 17.856 157.408 17.376C156.544 16.8853 155.856 16.208 155.344 15.344C154.843 14.48 154.592 13.504 154.592 12.416ZM175.559 9.184V18H173.735V16.96C173.447 17.3227 173.068 17.6107 172.599 17.824C172.14 18.0267 171.65 18.128 171.127 18.128C170.434 18.128 169.81 17.984 169.255 17.696C168.711 17.408 168.279 16.9813 167.959 16.416C167.65 15.8507 167.495 15.168 167.495 14.368V9.184H169.303V14.096C169.303 14.8853 169.5 15.4933 169.895 15.92C170.29 16.336 170.828 16.544 171.511 16.544C172.194 16.544 172.732 16.336 173.127 15.92C173.532 15.4933 173.735 14.8853 173.735 14.096V9.184H175.559ZM181.166 18.144C180.472 18.144 179.848 18.0213 179.294 17.776C178.75 17.52 178.318 17.1787 177.998 16.752C177.678 16.3147 177.507 15.8293 177.486 15.296H179.374C179.406 15.6693 179.582 15.984 179.902 16.24C180.232 16.4853 180.643 16.608 181.134 16.608C181.646 16.608 182.04 16.512 182.318 16.32C182.606 16.1173 182.75 15.8613 182.75 15.552C182.75 15.2213 182.59 14.976 182.27 14.816C181.96 14.656 181.464 14.48 180.782 14.288C180.12 14.1067 179.582 13.9307 179.166 13.76C178.75 13.5893 178.387 13.328 178.078 12.976C177.779 12.624 177.63 12.16 177.63 11.584C177.63 11.1147 177.768 10.688 178.046 10.304C178.323 9.90933 178.718 9.6 179.23 9.376C179.752 9.152 180.35 9.04 181.022 9.04C182.024 9.04 182.83 9.296 183.438 9.808C184.056 10.3093 184.387 10.9973 184.43 11.872H182.606C182.574 11.4773 182.414 11.1627 182.126 10.928C181.838 10.6933 181.448 10.576 180.958 10.576C180.478 10.576 180.11 10.6667 179.854 10.848C179.598 11.0293 179.47 11.2693 179.47 11.568C179.47 11.8027 179.555 12 179.726 12.16C179.896 12.32 180.104 12.448 180.35 12.544C180.595 12.6293 180.958 12.7413 181.438 12.88C182.078 13.0507 182.6 13.2267 183.006 13.408C183.422 13.5787 183.779 13.8347 184.078 14.176C184.376 14.5173 184.531 14.9707 184.542 15.536C184.542 16.0373 184.403 16.4853 184.126 16.88C183.848 17.2747 183.454 17.584 182.942 17.808C182.44 18.032 181.848 18.144 181.166 18.144ZM188.641 10.672V15.552C188.641 15.8827 188.715 16.1227 188.865 16.272C189.025 16.4107 189.291 16.48 189.665 16.48H190.785V18H189.345C188.523 18 187.894 17.808 187.457 17.424C187.019 17.04 186.801 16.416 186.801 15.552V10.672H185.761V9.184H186.801V6.992H188.641V9.184H190.785V10.672H188.641ZM196.29 18.144C195.458 18.144 194.706 17.9573 194.034 17.584C193.362 17.2 192.834 16.6667 192.45 15.984C192.066 15.2907 191.874 14.4907 191.874 13.584C191.874 12.688 192.071 11.8933 192.466 11.2C192.86 10.5067 193.399 9.97333 194.082 9.6C194.764 9.22667 195.527 9.04 196.37 9.04C197.212 9.04 197.975 9.22667 198.658 9.6C199.34 9.97333 199.879 10.5067 200.274 11.2C200.668 11.8933 200.866 12.688 200.866 13.584C200.866 14.48 200.663 15.2747 200.258 15.968C199.852 16.6613 199.298 17.2 198.594 17.584C197.9 17.9573 197.132 18.144 196.29 18.144ZM196.29 16.56C196.759 16.56 197.196 16.448 197.602 16.224C198.018 16 198.354 15.664 198.61 15.216C198.866 14.768 198.994 14.224 198.994 13.584C198.994 12.944 198.871 12.4053 198.626 11.968C198.38 11.52 198.055 11.184 197.65 10.96C197.244 10.736 196.807 10.624 196.338 10.624C195.868 10.624 195.431 10.736 195.026 10.96C194.631 11.184 194.316 11.52 194.082 11.968C193.847 12.4053 193.73 12.944 193.73 13.584C193.73 14.5333 193.97 15.2693 194.45 15.792C194.94 16.304 195.554 16.56 196.29 16.56ZM213.341 9.04C214.034 9.04 214.653 9.184 215.197 9.472C215.751 9.76 216.183 10.1867 216.493 10.752C216.813 11.3173 216.973 12 216.973 12.8V18H215.165V13.072C215.165 12.2827 214.967 11.68 214.573 11.264C214.178 10.8373 213.639 10.624 212.957 10.624C212.274 10.624 211.73 10.8373 211.325 11.264C210.93 11.68 210.733 12.2827 210.733 13.072V18H208.925V13.072C208.925 12.2827 208.727 11.68 208.333 11.264C207.938 10.8373 207.399 10.624 206.717 10.624C206.034 10.624 205.49 10.8373 205.085 11.264C204.69 11.68 204.493 12.2827 204.493 13.072V18H202.669V9.184H204.493V10.192C204.791 9.82933 205.17 9.54667 205.629 9.344C206.087 9.14133 206.578 9.04 207.101 9.04C207.805 9.04 208.434 9.18933 208.989 9.488C209.543 9.78667 209.97 10.2187 210.269 10.784C210.535 10.2507 210.951 9.82933 211.517 9.52C212.082 9.2 212.69 9.04 213.341 9.04ZM227.374 13.376C227.374 13.7067 227.352 14.0053 227.31 14.272H220.574C220.627 14.976 220.888 15.5413 221.358 15.968C221.827 16.3947 222.403 16.608 223.086 16.608C224.067 16.608 224.76 16.1973 225.166 15.376H227.134C226.867 16.1867 226.382 16.8533 225.678 17.376C224.984 17.888 224.12 18.144 223.086 18.144C222.243 18.144 221.486 17.9573 220.814 17.584C220.152 17.2 219.63 16.6667 219.246 15.984C218.872 15.2907 218.686 14.4907 218.686 13.584C218.686 12.6773 218.867 11.8827 219.23 11.2C219.603 10.5067 220.12 9.97333 220.782 9.6C221.454 9.22667 222.222 9.04 223.086 9.04C223.918 9.04 224.659 9.22133 225.31 9.584C225.96 9.94667 226.467 10.4587 226.83 11.12C227.192 11.7707 227.374 12.5227 227.374 13.376ZM225.47 12.8C225.459 12.128 225.219 11.5893 224.75 11.184C224.28 10.7787 223.699 10.576 223.006 10.576C222.376 10.576 221.838 10.7787 221.39 11.184C220.942 11.5787 220.675 12.1173 220.59 12.8H225.47ZM230.993 10.464C231.259 10.016 231.611 9.66933 232.049 9.424C232.497 9.168 233.025 9.04 233.633 9.04V10.928H233.169C232.454 10.928 231.91 11.1093 231.537 11.472C231.174 11.8347 230.993 12.464 230.993 13.36V18H229.169V9.184H230.993V10.464ZM243.162 10.672H241.53V18H239.69V10.672H238.65V9.184H239.69V8.56C239.69 7.54667 239.956 6.81067 240.49 6.352C241.034 5.88267 241.882 5.648 243.034 5.648V7.168C242.479 7.168 242.09 7.27467 241.866 7.488C241.642 7.69067 241.53 8.048 241.53 8.56V9.184H243.162V10.672ZM246.602 6.16V18H244.778V6.16H246.602ZM252.821 18.144C251.989 18.144 251.237 17.9573 250.565 17.584C249.893 17.2 249.365 16.6667 248.981 15.984C248.597 15.2907 248.405 14.4907 248.405 13.584C248.405 12.688 248.602 11.8933 248.997 11.2C249.392 10.5067 249.93 9.97333 250.613 9.6C251.296 9.22667 252.058 9.04 252.901 9.04C253.744 9.04 254.506 9.22667 255.189 9.6C255.872 9.97333 256.41 10.5067 256.805 11.2C257.2 11.8933 257.397 12.688 257.397 13.584C257.397 14.48 257.194 15.2747 256.789 15.968C256.384 16.6613 255.829 17.2 255.125 17.584C254.432 17.9573 253.664 18.144 252.821 18.144ZM252.821 16.56C253.29 16.56 253.728 16.448 254.133 16.224C254.549 16 254.885 15.664 255.141 15.216C255.397 14.768 255.525 14.224 255.525 13.584C255.525 12.944 255.402 12.4053 255.157 11.968C254.912 11.52 254.586 11.184 254.181 10.96C253.776 10.736 253.338 10.624 252.869 10.624C252.4 10.624 251.962 10.736 251.557 10.96C251.162 11.184 250.848 11.52 250.613 11.968C250.378 12.4053 250.261 12.944 250.261 13.584C250.261 14.5333 250.501 15.2693 250.981 15.792C251.472 16.304 252.085 16.56 252.821 16.56ZM271.04 9.184L268.304 18H266.384L264.608 11.488L262.832 18H260.912L258.16 9.184H260.016L261.856 16.272L263.728 9.184H265.632L267.424 16.24L269.248 9.184H271.04Z" fill="#0E1233"/>
<path d="M160.87 48.58C161.17 50.16 162.09 50.95 163.63 50.95C164.69 50.95 165.44 50.48 165.88 49.54C166.32 48.6 166.54 47.07 166.54 44.95C166.1 45.57 165.5 46.05 164.74 46.39C163.98 46.73 163.13 46.9 162.19 46.9C160.91 46.9 159.77 46.64 158.77 46.12C157.77 45.58 156.98 44.79 156.4 43.75C155.84 42.69 155.56 41.41 155.56 39.91C155.56 38.43 155.86 37.14 156.46 36.04C157.08 34.94 157.95 34.09 159.07 33.49C160.21 32.89 161.55 32.59 163.09 32.59C166.05 32.59 168.12 33.51 169.3 35.35C170.48 37.19 171.07 39.9 171.07 43.48C171.07 46.08 170.83 48.23 170.35 49.93C169.89 51.61 169.1 52.89 167.98 53.77C166.88 54.65 165.37 55.09 163.45 55.09C161.93 55.09 160.63 54.79 159.55 54.19C158.49 53.59 157.67 52.8 157.09 51.82C156.53 50.84 156.21 49.76 156.13 48.58H160.87ZM163.36 42.85C164.2 42.85 164.87 42.6 165.37 42.1C165.87 41.58 166.12 40.88 166.12 40C166.12 39.04 165.86 38.3 165.34 37.78C164.82 37.26 164.12 37 163.24 37C162.36 37 161.66 37.27 161.14 37.81C160.64 38.33 160.39 39.05 160.39 39.97C160.39 40.83 160.64 41.53 161.14 42.07C161.66 42.59 162.4 42.85 163.36 42.85ZM189.227 37.57H179.867V41.71C180.267 41.27 180.827 40.91 181.547 40.63C182.267 40.35 183.047 40.21 183.887 40.21C185.387 40.21 186.627 40.55 187.607 41.23C188.607 41.91 189.337 42.79 189.797 43.87C190.257 44.95 190.487 46.12 190.487 47.38C190.487 49.72 189.827 51.58 188.507 52.96C187.187 54.32 185.327 55 182.927 55C181.327 55 179.937 54.73 178.757 54.19C177.577 53.63 176.667 52.86 176.027 51.88C175.387 50.9 175.037 49.77 174.977 48.49H179.987C180.107 49.11 180.397 49.63 180.857 50.05C181.317 50.45 181.947 50.65 182.747 50.65C183.687 50.65 184.387 50.35 184.847 49.75C185.307 49.15 185.537 48.35 185.537 47.35C185.537 46.37 185.297 45.62 184.817 45.1C184.337 44.58 183.637 44.32 182.717 44.32C182.037 44.32 181.477 44.49 181.037 44.83C180.597 45.15 180.307 45.58 180.167 46.12H175.217V33.07H189.227V37.57ZM199.349 50.26L196.019 58.87H192.749L194.489 50.26H199.349ZM201.932 43.75C201.932 40.31 202.592 37.6 203.912 35.62C205.252 33.64 207.402 32.65 210.362 32.65C213.322 32.65 215.462 33.64 216.782 35.62C218.122 37.6 218.792 40.31 218.792 43.75C218.792 47.23 218.122 49.96 216.782 51.94C215.462 53.92 213.322 54.91 210.362 54.91C207.402 54.91 205.252 53.92 203.912 51.94C202.592 49.96 201.932 47.23 201.932 43.75ZM213.752 43.75C213.752 41.73 213.532 40.18 213.092 39.1C212.652 38 211.742 37.45 210.362 37.45C208.982 37.45 208.072 38 207.632 39.1C207.192 40.18 206.972 41.73 206.972 43.75C206.972 45.11 207.052 46.24 207.212 47.14C207.372 48.02 207.692 48.74 208.172 49.3C208.672 49.84 209.402 50.11 210.362 50.11C211.322 50.11 212.042 49.84 212.522 49.3C213.022 48.74 213.352 48.02 213.512 47.14C213.672 46.24 213.752 45.11 213.752 43.75ZM221.502 43.75C221.502 40.31 222.162 37.6 223.482 35.62C224.822 33.64 226.972 32.65 229.932 32.65C232.892 32.65 235.032 33.64 236.352 35.62C237.692 37.6 238.362 40.31 238.362 43.75C238.362 47.23 237.692 49.96 236.352 51.94C235.032 53.92 232.892 54.91 229.932 54.91C226.972 54.91 224.822 53.92 223.482 51.94C222.162 49.96 221.502 47.23 221.502 43.75ZM233.322 43.75C233.322 41.73 233.102 40.18 232.662 39.1C232.222 38 231.312 37.45 229.932 37.45C228.552 37.45 227.642 38 227.202 39.1C226.762 40.18 226.542 41.73 226.542 43.75C226.542 45.11 226.622 46.24 226.782 47.14C226.942 48.02 227.262 48.74 227.742 49.3C228.242 49.84 228.972 50.11 229.932 50.11C230.892 50.11 231.612 49.84 232.092 49.3C232.592 48.74 232.922 48.02 233.082 47.14C233.242 46.24 233.322 45.11 233.322 43.75ZM241.073 43.75C241.073 40.31 241.733 37.6 243.053 35.62C244.393 33.64 246.543 32.65 249.503 32.65C252.463 32.65 254.603 33.64 255.923 35.62C257.263 37.6 257.933 40.31 257.933 43.75C257.933 47.23 257.263 49.96 255.923 51.94C254.603 53.92 252.463 54.91 249.503 54.91C246.543 54.91 244.393 53.92 243.053 51.94C241.733 49.96 241.073 47.23 241.073 43.75ZM252.893 43.75C252.893 41.73 252.673 40.18 252.233 39.1C251.793 38 250.883 37.45 249.503 37.45C248.123 37.45 247.213 38 246.773 39.1C246.333 40.18 246.113 41.73 246.113 43.75C246.113 45.11 246.193 46.24 246.353 47.14C246.513 48.02 246.833 48.74 247.313 49.3C247.813 49.84 248.543 50.11 249.503 50.11C250.463 50.11 251.183 49.84 251.663 49.3C252.163 48.74 252.493 48.02 252.653 47.14C252.813 46.24 252.893 45.11 252.893 43.75Z" fill="#0E1233"/>
<path d="M214.016 71.636V80H212.924V71.636H214.016ZM219.081 73.304C219.881 73.304 220.529 73.548 221.025 74.036C221.521 74.516 221.769 75.212 221.769 76.124V80H220.689V76.28C220.689 75.624 220.525 75.124 220.197 74.78C219.869 74.428 219.421 74.252 218.853 74.252C218.277 74.252 217.817 74.432 217.473 74.792C217.137 75.152 216.969 75.676 216.969 76.364V80H215.877V73.424H216.969V74.36C217.185 74.024 217.477 73.764 217.845 73.58C218.221 73.396 218.633 73.304 219.081 73.304ZM223.145 76.7C223.145 76.02 223.281 75.428 223.553 74.924C223.825 74.412 224.201 74.016 224.681 73.736C225.169 73.456 225.725 73.316 226.349 73.316C227.157 73.316 227.821 73.512 228.341 73.904C228.869 74.296 229.217 74.84 229.385 75.536H228.209C228.097 75.136 227.877 74.82 227.549 74.588C227.229 74.356 226.829 74.24 226.349 74.24C225.725 74.24 225.221 74.456 224.837 74.888C224.453 75.312 224.261 75.916 224.261 76.7C224.261 77.492 224.453 78.104 224.837 78.536C225.221 78.968 225.725 79.184 226.349 79.184C226.829 79.184 227.229 79.072 227.549 78.848C227.869 78.624 228.089 78.304 228.209 77.888H229.385C229.209 78.56 228.857 79.1 228.329 79.508C227.801 79.908 227.141 80.108 226.349 80.108C225.725 80.108 225.169 79.968 224.681 79.688C224.201 79.408 223.825 79.012 223.553 78.5C223.281 77.988 223.145 77.388 223.145 76.7ZM231.934 74.492C232.126 74.116 232.398 73.824 232.75 73.616C233.11 73.408 233.546 73.304 234.058 73.304V74.432H233.77C232.546 74.432 231.934 75.096 231.934 76.424V80H230.842V73.424H231.934V74.492ZM241.319 76.46C241.319 76.668 241.307 76.888 241.283 77.12H236.027C236.067 77.768 236.287 78.276 236.687 78.644C237.095 79.004 237.587 79.184 238.163 79.184C238.635 79.184 239.027 79.076 239.339 78.86C239.659 78.636 239.883 78.34 240.011 77.972H241.187C241.011 78.604 240.659 79.12 240.131 79.52C239.603 79.912 238.947 80.108 238.163 80.108C237.539 80.108 236.979 79.968 236.483 79.688C235.995 79.408 235.611 79.012 235.331 78.5C235.051 77.98 234.911 77.38 234.911 76.7C234.911 76.02 235.047 75.424 235.319 74.912C235.591 74.4 235.971 74.008 236.459 73.736C236.955 73.456 237.523 73.316 238.163 73.316C238.787 73.316 239.339 73.452 239.819 73.724C240.299 73.996 240.667 74.372 240.923 74.852C241.187 75.324 241.319 75.86 241.319 76.46ZM240.191 76.232C240.191 75.816 240.099 75.46 239.915 75.164C239.731 74.86 239.479 74.632 239.159 74.48C238.847 74.32 238.499 74.24 238.115 74.24C237.563 74.24 237.091 74.416 236.699 74.768C236.315 75.12 236.095 75.608 236.039 76.232H240.191ZM242.352 76.688C242.352 76.016 242.488 75.428 242.76 74.924C243.032 74.412 243.404 74.016 243.876 73.736C244.356 73.456 244.888 73.316 245.472 73.316C246.048 73.316 246.548 73.44 246.972 73.688C247.396 73.936 247.712 74.248 247.92 74.624V73.424H249.024V80H247.92V78.776C247.704 79.16 247.38 79.48 246.948 79.736C246.524 79.984 246.028 80.108 245.46 80.108C244.876 80.108 244.348 79.964 243.876 79.676C243.404 79.388 243.032 78.984 242.76 78.464C242.488 77.944 242.352 77.352 242.352 76.688ZM247.92 76.7C247.92 76.204 247.82 75.772 247.62 75.404C247.42 75.036 247.148 74.756 246.804 74.564C246.468 74.364 246.096 74.264 245.688 74.264C245.28 74.264 244.908 74.36 244.572 74.552C244.236 74.744 243.968 75.024 243.768 75.392C243.568 75.76 243.468 76.192 243.468 76.688C243.468 77.192 243.568 77.632 243.768 78.008C243.968 78.376 244.236 78.66 244.572 78.86C244.908 79.052 245.28 79.148 245.688 79.148C246.096 79.148 246.468 79.052 246.804 78.86C247.148 78.66 247.42 78.376 247.62 78.008C247.82 77.632 247.92 77.196 247.92 76.7ZM253.197 80.108C252.693 80.108 252.241 80.024 251.841 79.856C251.441 79.68 251.125 79.44 250.893 79.136C250.661 78.824 250.533 78.468 250.509 78.068H251.637C251.669 78.396 251.821 78.664 252.093 78.872C252.373 79.08 252.737 79.184 253.185 79.184C253.601 79.184 253.929 79.092 254.169 78.908C254.409 78.724 254.529 78.492 254.529 78.212C254.529 77.924 254.401 77.712 254.145 77.576C253.889 77.432 253.493 77.292 252.957 77.156C252.469 77.028 252.069 76.9 251.757 76.772C251.453 76.636 251.189 76.44 250.965 76.184C250.749 75.92 250.641 75.576 250.641 75.152C250.641 74.816 250.741 74.508 250.941 74.228C251.141 73.948 251.425 73.728 251.793 73.568C252.161 73.4 252.581 73.316 253.053 73.316C253.781 73.316 254.369 73.5 254.817 73.868C255.265 74.236 255.505 74.74 255.537 75.38H254.445C254.421 75.036 254.281 74.76 254.025 74.552C253.777 74.344 253.441 74.24 253.017 74.24C252.625 74.24 252.313 74.324 252.081 74.492C251.849 74.66 251.733 74.88 251.733 75.152C251.733 75.368 251.801 75.548 251.937 75.692C252.081 75.828 252.257 75.94 252.465 76.028C252.681 76.108 252.977 76.2 253.353 76.304C253.825 76.432 254.209 76.56 254.505 76.688C254.801 76.808 255.053 76.992 255.261 77.24C255.477 77.488 255.589 77.812 255.597 78.212C255.597 78.572 255.497 78.896 255.297 79.184C255.097 79.472 254.813 79.7 254.445 79.868C254.085 80.028 253.669 80.108 253.197 80.108ZM263.139 76.46C263.139 76.668 263.127 76.888 263.103 77.12H257.847C257.887 77.768 258.107 78.276 258.507 78.644C258.915 79.004 259.407 79.184 259.983 79.184C260.455 79.184 260.847 79.076 261.159 78.86C261.479 78.636 261.703 78.34 261.831 77.972H263.007C262.831 78.604 262.479 79.12 261.951 79.52C261.423 79.912 260.767 80.108 259.983 80.108C259.359 80.108 258.799 79.968 258.303 79.688C257.815 79.408 257.431 79.012 257.151 78.5C256.871 77.98 256.731 77.38 256.731 76.7C256.731 76.02 256.867 75.424 257.139 74.912C257.411 74.4 257.791 74.008 258.279 73.736C258.775 73.456 259.343 73.316 259.983 73.316C260.607 73.316 261.159 73.452 261.639 73.724C262.119 73.996 262.487 74.372 262.743 74.852C263.007 75.324 263.139 75.86 263.139 76.46ZM262.011 76.232C262.011 75.816 261.919 75.46 261.735 75.164C261.551 74.86 261.299 74.632 260.979 74.48C260.667 74.32 260.319 74.24 259.935 74.24C259.383 74.24 258.911 74.416 258.519 74.768C258.135 75.12 257.915 75.608 257.859 76.232H262.011ZM264.172 76.688C264.172 76.016 264.308 75.428 264.58 74.924C264.852 74.412 265.224 74.016 265.696 73.736C266.176 73.456 266.712 73.316 267.304 73.316C267.816 73.316 268.292 73.436 268.732 73.676C269.172 73.908 269.508 74.216 269.74 74.6V71.12H270.844V80H269.74V78.764C269.524 79.156 269.204 79.48 268.78 79.736C268.356 79.984 267.86 80.108 267.292 80.108C266.708 80.108 266.176 79.964 265.696 79.676C265.224 79.388 264.852 78.984 264.58 78.464C264.308 77.944 264.172 77.352 264.172 76.688ZM269.74 76.7C269.74 76.204 269.64 75.772 269.44 75.404C269.24 75.036 268.968 74.756 268.624 74.564C268.288 74.364 267.916 74.264 267.508 74.264C267.1 74.264 266.728 74.36 266.392 74.552C266.056 74.744 265.788 75.024 265.588 75.392C265.388 75.76 265.288 76.192 265.288 76.688C265.288 77.192 265.388 77.632 265.588 78.008C265.788 78.376 266.056 78.66 266.392 78.86C266.728 79.052 267.1 79.148 267.508 79.148C267.916 79.148 268.288 79.052 268.624 78.86C268.968 78.66 269.24 78.376 269.44 78.008C269.64 77.632 269.74 77.196 269.74 76.7Z" fill="#444872"/>
<path d="M187.204 72.524L184.012 80H182.308L185.524 72.716H181.42V71.276H187.204V72.524ZM188.21 75.512C188.21 74.128 188.458 73.044 188.954 72.26C189.458 71.476 190.29 71.084 191.45 71.084C192.61 71.084 193.438 71.476 193.934 72.26C194.438 73.044 194.69 74.128 194.69 75.512C194.69 76.904 194.438 77.996 193.934 78.788C193.438 79.58 192.61 79.976 191.45 79.976C190.29 79.976 189.458 79.58 188.954 78.788C188.458 77.996 188.21 76.904 188.21 75.512ZM193.034 75.512C193.034 74.92 192.994 74.424 192.914 74.024C192.842 73.616 192.69 73.284 192.458 73.028C192.234 72.772 191.898 72.644 191.45 72.644C191.002 72.644 190.662 72.772 190.43 73.028C190.206 73.284 190.054 73.616 189.974 74.024C189.902 74.424 189.866 74.92 189.866 75.512C189.866 76.12 189.902 76.632 189.974 77.048C190.046 77.456 190.198 77.788 190.43 78.044C190.662 78.292 191.002 78.416 191.45 78.416C191.898 78.416 192.238 78.292 192.47 78.044C192.702 77.788 192.854 77.456 192.926 77.048C192.998 76.632 193.034 76.12 193.034 75.512ZM195.776 73.4C195.776 72.792 195.952 72.316 196.304 71.972C196.664 71.628 197.124 71.456 197.684 71.456C198.244 71.456 198.7 71.628 199.052 71.972C199.412 72.316 199.592 72.792 199.592 73.4C199.592 74.016 199.412 74.496 199.052 74.84C198.7 75.184 198.244 75.356 197.684 75.356C197.124 75.356 196.664 75.184 196.304 74.84C195.952 74.496 195.776 74.016 195.776 73.4ZM203.48 71.6L198.764 80H197.132L201.836 71.6H203.48ZM197.672 72.464C197.232 72.464 197.012 72.776 197.012 73.4C197.012 74.032 197.232 74.348 197.672 74.348C197.888 74.348 198.056 74.272 198.176 74.12C198.296 73.96 198.356 73.72 198.356 73.4C198.356 72.776 198.128 72.464 197.672 72.464ZM201.044 78.188C201.044 77.572 201.22 77.096 201.572 76.76C201.932 76.416 202.392 76.244 202.952 76.244C203.512 76.244 203.964 76.416 204.308 76.76C204.66 77.096 204.836 77.572 204.836 78.188C204.836 78.804 204.66 79.284 204.308 79.628C203.964 79.972 203.512 80.144 202.952 80.144C202.384 80.144 201.924 79.972 201.572 79.628C201.22 79.284 201.044 78.804 201.044 78.188ZM202.94 77.252C202.484 77.252 202.256 77.564 202.256 78.188C202.256 78.82 202.484 79.136 202.94 79.136C203.388 79.136 203.612 78.82 203.612 78.188C203.612 77.564 203.388 77.252 202.94 77.252Z" fill="#F5125F"/>
<path d="M155 80.9182L159.83 76.1775L163.755 80.0293L171 72.9182" stroke="#F5125F" stroke-width="1.5" stroke-linecap="round" stroke-linejoin="round"/>
<path d="M167 71.918H172V76.918" stroke="#F5125F" stroke-width="1.5" stroke-linecap="round"/>
<defs>
<filter id="filter0_d" x="0.25" y="16.2498" width="143.5" height="67.5003" filterUnits="userSpaceOnUse" color-interpolation-filters="sRGB">
<feFlood flood-opacity="0" result="BackgroundImageFix"/>
<feColorMatrix in="SourceAlpha" type="matrix" values="0 0 0 0 0 0 0 0 0 0 0 0 0 0 0 0 0 0 127 0"/>
<feOffset dy="6"/>
<feGaussianBlur stdDeviation="5"/>
<feColorMatrix type="matrix" values="0 0 0 0 0.960784 0 0 0 0 0.0705882 0 0 0 0 0.372549 0 0 0 0.4 0"/>
<feBlend mode="normal" in2="BackgroundImageFix" result="effect1_dropShadow"/>
<feBlend mode="normal" in="SourceGraphic" in2="effect1_dropShadow" result="shape"/>
</filter>
<linearGradient id="paint0_linear" x1="71.5" y1="23" x2="71.5" y2="83" gradientUnits="userSpaceOnUse">
<stop stop-color="#FFBBBB" stop-opacity="0"/>
<stop offset="1" stop-color="#FF3838" stop-opacity="0.18"/>
</linearGradient>
</defs>
</svg>
