<svg width="116" height="112" viewBox="0 0 116 112" fill="none" xmlns="http://www.w3.org/2000/svg">
<g filter="url(#filter0_f)">
<rect x="35" y="35" width="46" height="42" rx="10" fill="#FAC55F" fill-opacity="0.6"/>
</g>
<rect x="28" y="7" width="60" height="60" rx="10" fill="#FAC55F"/>
<path d="M58.0001 32.8342C55.7064 32.8342 53.8345 34.7061 53.8345 36.9999C53.8345 39.2936 55.7064 41.1655 58.0001 41.1655C60.2939 41.1655 62.1658 39.2936 62.1658 36.9999C62.1658 34.7061 60.2939 32.8342 58.0001 32.8342ZM70.4939 36.9999C70.4939 35.2749 70.5095 33.5655 70.4126 31.8436C70.3158 29.8436 69.8595 28.0686 68.397 26.6061C66.9314 25.1405 65.1595 24.6874 63.1595 24.5905C61.4345 24.4936 59.7251 24.5092 58.0033 24.5092C56.2783 24.5092 54.5689 24.4936 52.847 24.5905C50.847 24.6874 49.072 25.1436 47.6095 26.6061C46.1439 28.0717 45.6908 29.8436 45.5939 31.8436C45.497 33.5686 45.5126 35.278 45.5126 36.9999C45.5126 38.7217 45.497 40.4342 45.5939 42.1561C45.6908 44.1561 46.147 45.9311 47.6095 47.3936C49.0751 48.8592 50.847 49.3124 52.847 49.4092C54.572 49.5061 56.2814 49.4905 58.0033 49.4905C59.7283 49.4905 61.4376 49.5061 63.1595 49.4092C65.1595 49.3124 66.9345 48.8561 68.397 47.3936C69.8626 45.928 70.3158 44.1561 70.4126 42.1561C70.5126 40.4342 70.4939 38.7249 70.4939 36.9999ZM58.0001 43.4092C54.4533 43.4092 51.5908 40.5467 51.5908 36.9999C51.5908 33.453 54.4533 30.5905 58.0001 30.5905C61.547 30.5905 64.4095 33.453 64.4095 36.9999C64.4095 40.5467 61.547 43.4092 58.0001 43.4092ZM64.672 31.8249C63.8439 31.8249 63.1751 31.1561 63.1751 30.328C63.1751 29.4999 63.8439 28.8311 64.672 28.8311C65.5001 28.8311 66.1689 29.4999 66.1689 30.328C66.1691 30.5246 66.1306 30.7194 66.0555 30.9011C65.9803 31.0828 65.8701 31.2479 65.731 31.387C65.592 31.526 65.4269 31.6363 65.2451 31.7114C65.0634 31.7866 64.8687 31.8251 64.672 31.8249Z" fill="white"/>
<defs>
<filter id="filter0_f" x="0" y="0" width="116" height="112" filterUnits="userSpaceOnUse" color-interpolation-filters="sRGB">
<feFlood flood-opacity="0" result="BackgroundImageFix"/>
<feBlend mode="normal" in="SourceGraphic" in2="BackgroundImageFix" result="shape"/>
<feGaussianBlur stdDeviation="17.5" result="effect1_foregroundBlur"/>
</filter>
</defs>
</svg>
