<svg width="133" height="50" viewBox="0 0 133 50" fill="none" xmlns="http://www.w3.org/2000/svg">
<path d="M62.464 36V15.136H67.616L70.976 24.416C71.1893 25.0347 71.392 25.6747 71.584 26.336C71.776 26.976 71.9787 27.616 72.192 28.256H72.32C72.5333 27.616 72.7253 26.976 72.896 26.336C73.088 25.6747 73.2907 25.0347 73.504 24.416L76.8 15.136H81.92V36H77.632V28.352C77.632 27.84 77.6533 27.2747 77.696 26.656C77.7387 26.0373 77.792 25.4187 77.856 24.8C77.92 24.16 77.984 23.5413 78.048 22.944C78.112 22.3253 78.176 21.76 78.24 21.248H78.112L76.416 26.208L73.44 34.176H70.848L67.872 26.208L66.208 21.248H66.08C66.144 21.76 66.208 22.3253 66.272 22.944C66.336 23.5413 66.4 24.16 66.464 24.8C66.528 25.4187 66.5813 26.0373 66.624 26.656C66.6667 27.2747 66.688 27.84 66.688 28.352V36H62.464ZM93.559 36.384C92.4283 36.384 91.3723 36.2027 90.391 35.84C89.4097 35.456 88.5563 34.912 87.831 34.208C87.1057 33.4827 86.5403 32.608 86.135 31.584C85.7297 30.56 85.527 29.3867 85.527 28.064C85.527 26.784 85.7403 25.632 86.167 24.608C86.5937 23.5627 87.1483 22.688 87.831 21.984C88.535 21.2587 89.335 20.704 90.231 20.32C91.127 19.936 92.055 19.744 93.015 19.744C94.1457 19.744 95.127 19.936 95.959 20.32C96.8123 20.704 97.5163 21.2373 98.071 21.92C98.647 22.6027 99.0737 23.4133 99.351 24.352C99.6283 25.2693 99.767 26.272 99.767 27.36C99.767 27.7867 99.7457 28.192 99.703 28.576C99.6603 28.96 99.6177 29.248 99.575 29.44H90.071C90.2843 30.592 90.7537 31.4453 91.479 32C92.2257 32.5333 93.1323 32.8 94.199 32.8C95.3297 32.8 96.471 32.448 97.623 31.744L99.191 34.592C98.3803 35.1467 97.4737 35.584 96.471 35.904C95.4897 36.224 94.519 36.384 93.559 36.384ZM90.039 26.336H95.767C95.767 25.44 95.5643 24.7147 95.159 24.16C94.7537 23.6053 94.071 23.328 93.111 23.328C92.3643 23.328 91.703 23.5733 91.127 24.064C90.5723 24.5547 90.2097 25.312 90.039 26.336ZM109.93 36.384C108.82 36.384 107.786 36.2027 106.826 35.84C105.887 35.456 105.066 34.912 104.362 34.208C103.658 33.504 103.103 32.64 102.698 31.616C102.292 30.5707 102.09 29.3867 102.09 28.064C102.09 26.7413 102.314 25.568 102.762 24.544C103.21 23.4987 103.807 22.624 104.554 21.92C105.322 21.216 106.207 20.6827 107.21 20.32C108.212 19.936 109.258 19.744 110.345 19.744C111.327 19.744 112.191 19.904 112.938 20.224C113.706 20.544 114.388 20.9493 114.986 21.44L112.778 24.48C112.031 23.8613 111.316 23.552 110.634 23.552C109.482 23.552 108.575 23.9573 107.914 24.768C107.252 25.5787 106.922 26.6773 106.922 28.064C106.922 29.4507 107.252 30.5493 107.914 31.36C108.596 32.1707 109.45 32.576 110.474 32.576C110.986 32.576 111.476 32.4693 111.946 32.256C112.436 32.0213 112.895 31.744 113.322 31.424L115.178 34.496C114.388 35.1787 113.535 35.6693 112.618 35.968C111.7 36.2453 110.804 36.384 109.93 36.384ZM123.865 36.384C122.862 36.384 121.891 36.2027 120.953 35.84C120.014 35.456 119.182 34.912 118.457 34.208C117.753 33.504 117.187 32.64 116.761 31.616C116.334 30.5707 116.121 29.3867 116.121 28.064C116.121 26.7413 116.334 25.568 116.761 24.544C117.187 23.4987 117.753 22.624 118.457 21.92C119.182 21.216 120.014 20.6827 120.953 20.32C121.891 19.936 122.862 19.744 123.865 19.744C124.867 19.744 125.827 19.936 126.745 20.32C127.683 20.6827 128.505 21.216 129.209 21.92C129.934 22.624 130.51 23.4987 130.937 24.544C131.363 25.568 131.577 26.7413 131.577 28.064C131.577 29.3867 131.363 30.5707 130.937 31.616C130.51 32.64 129.934 33.504 129.209 34.208C128.505 34.912 127.683 35.456 126.745 35.84C125.827 36.2027 124.867 36.384 123.865 36.384ZM123.865 32.576C124.825 32.576 125.55 32.1707 126.041 31.36C126.531 30.5493 126.777 29.4507 126.777 28.064C126.777 26.6773 126.531 25.5787 126.041 24.768C125.55 23.9573 124.825 23.552 123.865 23.552C122.883 23.552 122.147 23.9573 121.657 24.768C121.187 25.5787 120.953 26.6773 120.953 28.064C120.953 29.4507 121.187 30.5493 121.657 31.36C122.147 32.1707 122.883 32.576 123.865 32.576Z" fill="#0E1233"/>
<path d="M22.5 1.44338C24.047 0.550212 25.953 0.550212 27.5 1.44338L44.1506 11.0566C45.6976 11.9498 46.6506 13.6004 46.6506 15.3868V34.6132C46.6506 36.3996 45.6976 38.0502 44.1506 38.9434L27.5 48.5566C25.953 49.4498 24.047 49.4498 22.5 48.5566L5.84937 38.9434C4.30236 38.0502 3.34937 36.3996 3.34937 34.6133V15.3868C3.34937 13.6004 4.30236 11.9498 5.84936 11.0566L22.5 1.44338Z" fill="#6050CA"/>
<path d="M15.464 36V15.136H20.616L23.976 24.416C24.1893 25.0347 24.392 25.6747 24.584 26.336C24.776 26.976 24.9787 27.616 25.192 28.256H25.32C25.5333 27.616 25.7253 26.976 25.896 26.336C26.088 25.6747 26.2907 25.0347 26.504 24.416L29.8 15.136H34.92V36H30.632V28.352C30.632 27.84 30.6533 27.2747 30.696 26.656C30.7387 26.0373 30.792 25.4187 30.856 24.8C30.92 24.16 30.984 23.5413 31.048 22.944C31.112 22.3253 31.176 21.76 31.24 21.248H31.112L29.416 26.208L26.44 34.176H23.848L20.872 26.208L19.208 21.248H19.08C19.144 21.76 19.208 22.3253 19.272 22.944C19.336 23.5413 19.4 24.16 19.464 24.8C19.528 25.4187 19.5813 26.0373 19.624 26.656C19.6667 27.2747 19.688 27.84 19.688 28.352V36H15.464Z" fill="white"/>
</svg>
