<svg width="110" height="50" viewBox="0 0 110 50" fill="none" xmlns="http://www.w3.org/2000/svg">
<circle cx="25" cy="25" r="25" fill="#0064C0"/>
<path d="M25 16C20.0297 16 16 20.0505 16 25.0464C16 29.5816 19.324 33.3268 23.6545 33.9812V27.4436H21.4278V25.066H23.6545V23.4836C23.6545 20.8639 24.9243 19.7143 27.0903 19.7143C28.1275 19.7143 28.6765 19.7919 28.936 19.8266V21.902H27.4585C26.539 21.902 26.218 22.7787 26.218 23.7663V25.066H28.9127L28.5475 27.4436H26.218V34C30.6108 33.4014 34 29.6261 34 25.0464C34 20.0505 29.9703 16 25 16Z" fill="white"/>
<circle cx="85" cy="25" r="25" fill="#0090E3"/>
<path d="M95 18.8939C94.2639 19.2157 93.4731 19.4323 92.6432 19.53C93.4908 19.0302 94.1408 18.2389 94.4469 17.2953C93.6547 17.758 92.7762 18.0942 91.8409 18.276C91.0925 17.4907 90.0263 17 88.8464 17C86.5803 17 84.7435 18.8091 84.7435 21.0392C84.7435 21.3557 84.7804 21.6647 84.8496 21.9592C81.4398 21.7911 78.4168 20.1827 76.3923 17.7383C76.04 18.335 75.8377 19.0287 75.8377 19.77C75.8377 21.1709 76.5615 22.4075 77.6622 23.1315C76.9899 23.1103 76.3569 22.9285 75.8038 22.6264C75.8038 22.6438 75.8038 22.6597 75.8038 22.6771C75.8038 24.6346 77.2176 26.2673 79.0952 26.6376C78.7514 26.7299 78.3883 26.7792 78.0137 26.7792C77.7499 26.7792 77.4922 26.7534 77.2422 26.7072C77.7645 28.3118 79.2798 29.4803 81.0752 29.5128C79.6714 30.5965 77.9022 31.2424 75.9792 31.2424C75.6484 31.2424 75.3215 31.2235 75 31.1856C76.8161 32.3313 78.9722 33 81.2898 33C88.8372 33 92.9632 26.845 92.9632 21.5072C92.9632 21.3322 92.9593 21.1581 92.9516 20.9847C93.7539 20.4145 94.45 19.7034 95 18.8939Z" fill="white"/>
</svg>
